# xmcd
#
# Track frame offsets:
#	150
#	16332
#	25011
#	36373
#	45678
#	59349
#	72498
#	81724
#	97167
#	108725
#	120837
#	129952
#	141611
#	154576
#	165177
#	180323
#
# Disc length: 2513 seconds
# Revision: 0
# Processed by: cddbd v1.5.2PL0 Copyright (c) Steve Scherf et al.
# Submitted via: dBpowerAMP V12.0
#
DISCID=d709cf10
DTITLE=Various Artist - The Beatles Songbook
DYEAR=2003
DGENRE=Rock/Pop
TTITLE0=Shirley Bassey - Something
TTITLE1=Cilla Black - For No One
TTITLE2=Cliff Bennett and The Rebel Rousers - Got To Get You Into My Life
TTITLE3=Billy J. Kramer and The Dakotas - Do You Want To Know a Secret
TTITLE4=Ike and Tina Turner - Get Back
TTITLE5=The Crickets - I Saw Her Standing There
TTITLE6=Cilla Black - Love Of The Loved
TTITLE7=The King Singers - Strawberry Fields Forever
TTITLE8=PJ Proby - That Means a Lot
TTITLE9=Alma Cogan - I Feel Fine
TTITLE10=Glyn Johns - I'll Follow The Sun
TTITLE11=Joe Brown - With A Little Help From My Friends
TTITLE12=Brazilian Tropical Orchestra - Eleanor Rigby
TTITLE13=Bobby Vee - She Loves You
TTITLE14=Matt Monro - All My Loving
TTITLE15=Peter Sellers - A Hard Days Night
EXTD=
EXTT0=
EXTT1=
EXTT2=
EXTT3=
EXTT4=
EXTT5=
EXTT6=
EXTT7=
EXTT8=
EXTT9=
EXTT10=
EXTT11=
EXTT12=
EXTT13=
EXTT14=
EXTT15=
PLAYORDER=
